<svg xmlns="http://www.w3.org/2000/svg" viewBox="0 0 500 620" fill="none" stroke="#222" stroke-width="1.8" stroke-linecap="round" stroke-linejoin="round">
  <!-- FRONT VIEW -->
  <!-- Head -->
  <ellipse cx="120" cy="52" rx="24" ry="30"/>
  <!-- Neck -->
  <line x1="112" y1="82" x2="112" y2="98"/>
  <line x1="128" y1="82" x2="128" y2="98"/>
  <!-- Shoulders -->
  <path d="M112,98 Q100,98 80,110"/>
  <path d="M128,98 Q140,98 160,110"/>
  <!-- Torso outline -->
  <path d="M80,110 L78,170 L76,230 L82,270 L88,290"/>
  <path d="M160,110 L162,170 L164,230 L158,270 L152,290"/>
  <!-- Waist / Hip -->
  <path d="M88,290 Q90,300 92,310 Q100,330 120,332"/>
  <path d="M152,290 Q150,300 148,310 Q140,330 120,332"/>
  <!-- Left Arm -->
  <path d="M80,110 L68,140 L58,175 L50,210 L44,245 L40,270 L38,290"/>
  <path d="M80,110 L75,125 L72,140 L65,175 L58,210 L54,245 L50,270 L48,288"/>
  <!-- Left Hand -->
  <path d="M38,290 Q36,300 37,308 Q40,315 45,310"/>
  <path d="M48,288 Q50,298 48,308 Q45,312 45,310"/>
  <!-- Right Arm -->
  <path d="M160,110 L172,140 L182,175 L190,210 L196,245 L200,270 L202,290"/>
  <path d="M160,110 L165,125 L168,140 L175,175 L182,210 L186,245 L190,270 L192,288"/>
  <!-- Right Hand -->
  <path d="M202,290 Q204,300 203,308 Q200,315 195,310"/>
  <path d="M192,288 Q190,298 192,308 Q195,312 195,310"/>
  <!-- Left Leg -->
  <path d="M92,310 L90,360 L88,410 L86,450 L84,490 L82,530 L80,555"/>
  <path d="M120,332 L115,360 L110,410 L108,450 L106,490 L104,530 L102,555"/>
  <!-- Left Foot -->
  <path d="M80,555 Q76,565 72,572 Q70,578 78,580 Q86,580 92,578"/>
  <path d="M102,555 Q100,565 98,570 Q96,576 92,578"/>
  <!-- Right Leg -->
  <path d="M148,310 L150,360 L152,410 L154,450 L156,490 L158,530 L160,555"/>
  <path d="M120,332 L125,360 L130,410 L132,450 L134,490 L136,530 L138,555"/>
  <!-- Right Foot -->
  <path d="M160,555 Q164,565 168,572 Q170,578 162,580 Q154,580 148,578"/>
  <path d="M138,555 Q140,565 142,570 Q144,576 148,578"/>
  <!-- Front Label -->
  <text x="120" y="608" text-anchor="middle" fill="#222" stroke="none" font-size="16" font-family="system-ui, -apple-system, sans-serif" font-weight="500">Front</text>

  <!-- BACK VIEW -->
  <!-- Head -->
  <ellipse cx="370" cy="52" rx="24" ry="30"/>
  <!-- Neck -->
  <line x1="362" y1="82" x2="362" y2="98"/>
  <line x1="378" y1="82" x2="378" y2="98"/>
  <!-- Shoulders -->
  <path d="M362,98 Q350,98 330,110"/>
  <path d="M378,98 Q390,98 410,110"/>
  <!-- Torso outline -->
  <path d="M330,110 L328,170 L326,230 L332,270 L338,290"/>
  <path d="M410,110 L412,170 L414,230 L408,270 L402,290"/>
  <!-- Spine line -->
  <line x1="370" y1="100" x2="370" y2="290" stroke-dasharray="5,5" stroke-width="1"/>
  <!-- Waist / Hip -->
  <path d="M338,290 Q340,300 342,310 Q350,330 370,332"/>
  <path d="M402,290 Q400,300 398,310 Q390,330 370,332"/>
  <!-- Gluteal line -->
  <path d="M348,310 Q370,325 392,310" stroke-width="1"/>
  <!-- Left Arm -->
  <path d="M330,110 L318,140 L308,175 L300,210 L294,245 L290,270 L288,290"/>
  <path d="M330,110 L325,125 L322,140 L315,175 L308,210 L304,245 L300,270 L298,288"/>
  <!-- Left Hand -->
  <path d="M288,290 Q286,300 287,308 Q290,315 295,310"/>
  <path d="M298,288 Q300,298 298,308 Q295,312 295,310"/>
  <!-- Right Arm -->
  <path d="M410,110 L422,140 L432,175 L440,210 L446,245 L450,270 L452,290"/>
  <path d="M410,110 L415,125 L418,140 L425,175 L432,210 L436,245 L440,270 L442,288"/>
  <!-- Right Hand -->
  <path d="M452,290 Q454,300 453,308 Q450,315 445,310"/>
  <path d="M442,288 Q440,298 442,308 Q445,312 445,310"/>
  <!-- Left Leg -->
  <path d="M342,310 L340,360 L338,410 L336,450 L334,490 L332,530 L330,555"/>
  <path d="M370,332 L365,360 L360,410 L358,450 L356,490 L354,530 L352,555"/>
  <!-- Left Foot -->
  <path d="M330,555 Q326,565 322,572 Q320,578 328,580 Q336,580 342,578"/>
  <path d="M352,555 Q350,565 348,570 Q346,576 342,578"/>
  <!-- Right Leg -->
  <path d="M398,310 L400,360 L402,410 L404,450 L406,490 L408,530 L410,555"/>
  <path d="M370,332 L375,360 L380,410 L382,450 L384,490 L386,530 L388,555"/>
  <!-- Right Foot -->
  <path d="M410,555 Q414,565 418,572 Q420,578 412,580 Q404,580 398,578"/>
  <path d="M388,555 Q390,565 392,570 Q394,576 398,578"/>
  <!-- Back Label -->
  <text x="370" y="608" text-anchor="middle" fill="#222" stroke="none" font-size="16" font-family="system-ui, -apple-system, sans-serif" font-weight="500">Back</text>
</svg>
